<?xml version="1.0" standalone="yes"?>
<svg xmlns="http://www.w3.org/2000/svg" width="225" height="225">
<path style="fill:#fefefe; stroke:none;" d="M0 0L0 225L225 225L225 0L0 0z"/>
<path style="fill:#62a296; stroke:none;" d="M72 35L72 36L84 36L72 35z"/>
<path style="fill:#ce9c7a; stroke:none;" d="M84 35L86 37L84 35z"/>
<path style="fill:#62a296; stroke:none;" d="M115 35L115 36L118 36L115 35z"/>
<path style="fill:#ce9c7a; stroke:none;" d="M118 35L119 36L118 35M140 35L140 36L153 36L140 35M70 36L71 37L70 36z"/>
<path style="fill:#20167c; stroke:none;" d="M85 66C94.9238 73.3687 98.6716 95.9924 112 97C112 91.4654 113.138 84.5246 111.683 79.1698C110.663 75.4167 106.866 72.2723 104.815 69C99.6553 60.7674 94.8088 52.3253 89.8002 44C87.168 39.6249 74.9529 29.4785 70.6034 38.3179C68.7316 42.1219 70 48.8452 70 53C70 65.0749 67.1238 81.3103 70.3179 92.9414C71.6188 97.6784 80.2539 98.7557 82.9722 94.6821C87.19 88.3613 83.5822 73.637 85 66z"/>
<path style="fill:#ce9c7a; stroke:none;" d="M113 36L114 37L113 36z"/>
<path style="fill:#20167c; stroke:none;" d="M114.607 37.0463C111.25 39.5401 115.315 44.1483 118.667 41.9537C122.436 39.4868 117.812 34.6653 114.607 37.0463z"/>
<path style="fill:#62a296; stroke:none;" d="M119 36L120 37L119 36z"/>
<path style="fill:#fa6604; stroke:none;" d="M112 97C124.441 96.9561 133.072 77.7283 137 67C146.812 72.4108 134.65 91.9662 144.148 96.2577C147.318 97.6898 152.834 97.4317 154.397 93.8519C159.034 83.2316 155 62.6103 155 51C155 47.4689 156.301 40.5434 153.972 37.6034C147.702 29.6862 137.871 40.1326 135.011 45C129.772 53.9149 125.136 63.3638 119.384 71.956C117.571 74.6651 113.895 76.3877 112.603 79.2739C110.495 83.9813 112 91.8977 112 97z"/>
<path style="fill:#ce9c7a; stroke:none;" d="M154 36L155 37L154 36M120 37L121 38L120 37M139 37L140 38L139 37M69 38L70 39L69 38M86 38L87 39L86 38M112 38L112 41L113 41L112 38M155 38L155 94L156 94L156 56L155 38z"/>
<path style="fill:#62a296; stroke:none;" d="M69 39L69 94L70 94L70 57L69 39z"/>
<path style="fill:#ce9c7a; stroke:none;" d="M138 39L139 40L138 39z"/>
<path style="fill:#62a296; stroke:none;" d="M87 40L88 41L87 40z"/>
<path style="fill:#ce9c7a; stroke:none;" d="M137 40L138 41L137 40M88 41L89 42L88 41M120 41L121 42L120 41M113 42L114 43L113 42z"/>
<path style="fill:#62a296; stroke:none;" d="M119 42L120 43L119 42z"/>
<path style="fill:#ce9c7a; stroke:none;" d="M136 42L137 43L136 42M89 43L90 44L89 43M108 43L109 44L108 43M115 43L116 44L115 43z"/>
<path style="fill:#62a296; stroke:none;" d="M116.667 43.3333L117.333 43.6667L116.667 43.3333z"/>
<path style="fill:#ce9c7a; stroke:none;" d="M118 43L119 44L118 43z"/>
<path style="fill:#fa6604; stroke:none;" d="M106.603 45.0857C103.362 47.3029 107.255 52.4249 110.382 49.9537C113.186 47.7381 109.463 43.1299 106.603 45.0857z"/>
<path style="fill:#ce9c7a; stroke:none;" d="M110 44L111 45L110 44M135 44L136 45L135 44z"/>
<path style="fill:#62a296; stroke:none;" d="M90 45L91 46L90 45z"/>
<path style="fill:#ce9c7a; stroke:none;" d="M111 45L112 46L111 45M134 45L135 46L134 45M91 46L92 47L91 46M104 46L104 50L105 50L104 46M112 46L112 49L113 49L112 46M133 47L134 48L133 47M92 48L93 49L92 48M132 49L133 50L132 49z"/>
<path style="fill:#62a296; stroke:none;" d="M93 50L94 51L93 50z"/>
<path style="fill:#ce9c7a; stroke:none;" d="M105 50L106 51L105 50M111 50L112 51L111 50M94 51L95 52L94 51M106 51L106 52L111 52L106 51M131 51L132 52L131 51M130 52L131 53L130 52M95 53L96 54L95 53M129 54L130 55L129 54z"/>
<path style="fill:#62a296; stroke:none;" d="M96 55L97 56L96 55z"/>
<path style="fill:#ce9c7a; stroke:none;" d="M97 56L98 57L97 56M128 56L129 57L128 56z"/>
<path style="fill:#62a296; stroke:none;" d="M98 58L99 59L98 58z"/>
<path style="fill:#ce9c7a; stroke:none;" d="M126 59L127 60L126 59z"/>
<path style="fill:#62a296; stroke:none;" d="M99 60L100 61L99 60z"/>
<path style="fill:#ce9c7a; stroke:none;" d="M100 61L101 62L100 61M125 61L126 62L125 61z"/>
<path style="fill:#62a296; stroke:none;" d="M101 63L102 64L101 63z"/>
<path style="fill:#ce9c7a; stroke:none;" d="M124 63L125 64L124 63z"/>
<path style="fill:#62a296; stroke:none;" d="M102 65L103 66L102 65z"/>
<path style="fill:#ce9c7a; stroke:none;" d="M123 65L124 66L123 65z"/>
<path style="fill:#62a296; stroke:none;" d="M85 66L86 67L85 66z"/>
<path style="fill:#ce9c7a; stroke:none;" d="M86 66L87 67L86 66M103 66L104 67L103 66M122 66L123 67L122 66M137 67L137 68L140 68L137 67z"/>
<path style="fill:#62a296; stroke:none;" d="M84 68L84 94L85 94L84 68z"/>
<path style="fill:#ce9c7a; stroke:none;" d="M88 68L89 69L88 68z"/>
<path style="fill:#62a296; stroke:none;" d="M104 68L105 69L104 68z"/>
<path style="fill:#ce9c7a; stroke:none;" d="M121 68L122 69L121 68M140 68L140 94L141 94L140 68z"/>
<path style="fill:#62a296; stroke:none;" d="M89 69L90 70L89 69z"/>
<path style="fill:#ce9c7a; stroke:none;" d="M136 69L137 70L136 69z"/>
<path style="fill:#62a296; stroke:none;" d="M105 70L106 71L105 70z"/>
<path style="fill:#ce9c7a; stroke:none;" d="M120 70L121 71L120 70M135 70L136 71L135 70M90 71L91 72L90 71M106 71L107 72L106 71M134 72L135 73L134 72M91 73L92 74L91 73z"/>
<path style="fill:#62a296; stroke:none;" d="M107 73L108 74L107 73z"/>
<path style="fill:#ce9c7a; stroke:none;" d="M118 73L119 74L118 73z"/>
<path style="fill:#62a296; stroke:none;" d="M92 74L93 75L92 74z"/>
<path style="fill:#ce9c7a; stroke:none;" d="M133 74L134 75L133 74M117 75L118 76L117 75M132 75L133 76L132 75M93 76L94 77L93 76M110 76L111 77L110 76M115 76L116 77L115 76z"/>
<path style="fill:#62a296; stroke:none;" d="M94 77L95 78L94 77z"/>
<path style="fill:#ce9c7a; stroke:none;" d="M112 77L113 78L112 77M131 77L132 78L131 77M95 79L96 80L95 79M130 79L131 80L130 79M96 81L97 82L96 81z"/>
<path style="fill:#62a296; stroke:none;" d="M97 82L98 83L97 82z"/>
<path style="fill:#ce9c7a; stroke:none;" d="M128 82L129 83L128 82M98 84L99 85L98 84M127 84L128 85L127 84M100 87L101 88L100 87M125 87L126 88L125 87M101 89L102 90L101 89M124 89L125 90L124 89z"/>
<path style="fill:#62a296; stroke:none;" d="M102 90L103 91L102 90z"/>
<path style="fill:#ce9c7a; stroke:none;" d="M123.333 90.6667L123.667 91.3333L123.333 90.6667M103 92L104 93L103 92M122 92L123 93L122 92M69 94L70 95L69 94M84 94L85 95L84 94M121 94L122 95L121 94z"/>
<path style="fill:#62a296; stroke:none;" d="M70 95L71 96L70 95M83 95L84 96L83 95z"/>
<path style="fill:#ce9c7a; stroke:none;" d="M105 95L106 96L105 95M141 95L142 96L141 95M154 95L155 96L154 95M71 96L72 97L71 96z"/>
<path style="fill:#62a296; stroke:none;" d="M82 96L83 97L82 96M106 96L107 97L106 96z"/>
<path style="fill:#ce9c7a; stroke:none;" d="M120 96L121 97L120 96M142.667 96.3333L143.333 96.6667L142.667 96.3333M153 96L154 97L153 96M108 120L109 121L108 120M106 121L105 123L106 121z"/>
<path style="fill:#62a296; stroke:none;" d="M105 134C98.1652 131.216 91.7139 129.566 85.0934 134.133C75.8688 140.497 76.063 156.005 86.0154 161.583C105.213 172.342 111 151.215 111 137C111 133.475 112.471 125.482 109.977 122.662C105.261 117.329 105 132.33 105 134z"/>
<path style="fill:#ce9c7a; stroke:none;" d="M110 121L111 122L110 121M111 123L111 150L112 150L111 123M54 131L55 132L54 131z"/>
<path style="fill:#62a296; stroke:none;" d="M55 131L56 132L55 131z"/>
<path style="fill:#20167c; stroke:none;" d="M56 131.53C35.058 136.262 42.0826 168.486 63 163.467C83.3494 158.584 76.0078 127.009 56 131.53z"/>
<path style="fill:#62a296; stroke:none;" d="M63 131L64 132L63 131z"/>
<path style="fill:#ce9c7a; stroke:none;" d="M64 131L65 132L64 131M89.6667 131.333L90.3333 131.667L89.6667 131.333M99 131L100 132L99 131M125 131L126 132L125 131z"/>
<path style="fill:#62a296; stroke:none;" d="M126 131.638C105.338 137.577 114.273 169.347 135 163.362C155.115 157.554 145.831 125.938 126 131.638z"/>
<path style="fill:#ce9c7a; stroke:none;" d="M134 131L135 132L134 131M160.667 131.333L161.333 131.667L160.667 131.333z"/>
<path style="fill:#62a296; stroke:none;" d="M162 131.532C140.808 136.548 148.828 168.605 170 163.467C190.214 158.561 182.311 126.726 162 131.532z"/>
<path style="fill:#ce9c7a; stroke:none;" d="M170 131L171 132L170 131M51 132L52 133L51 132z"/>
<path style="fill:#62a296; stroke:none;" d="M52 132L53 133L52 132M65 132L66 133L65 132z"/>
<path style="fill:#ce9c7a; stroke:none;" d="M66 132L67 133L66 132M87 132L88 133L87 132M101.667 132.333L102.333 132.667L101.667 132.333M122.667 132.333L123.333 132.667L122.667 132.333M137 132L138 133L137 132M158 132L159 133L158 132M172 132L173 133L172 132z"/>
<path style="fill:#62a296; stroke:none;" d="M50 133L51 134L50 133M67 133L68 134L67 133z"/>
<path style="fill:#ce9c7a; stroke:none;" d="M68 133L69 134L68 133M85 133L86 134L85 133M103 133L104 134L103 133M121 133L122 134L121 133M139 133L140 134L139 133M156 133L157 134L156 133M174 133L175 134L174 133M48 134L49 135L48 134z"/>
<path style="fill:#62a296; stroke:none;" d="M69 134L70 135L69 134z"/>
<path style="fill:#ce9c7a; stroke:none;" d="M84 134L85 135L84 134M119 134L120 135L119 134M140 134L141 135L140 134M155 134L156 135L155 134M47 135L48 136L47 135z"/>
<path style="fill:#62a296; stroke:none;" d="M70 135L71 136L70 135z"/>
<path style="fill:#ce9c7a; stroke:none;" d="M118 135L119 136L118 135M141 135L142 136L141 135M177 135L178 136L177 135M46 136L47 137L46 136z"/>
<path style="fill:#62a296; stroke:none;" d="M71 136L72 137L71 136z"/>
<path style="fill:#ce9c7a; stroke:none;" d="M117 136L118 137L117 136M142 136L143 137L142 136M178 136L179 137L178 136M45 137L46 138L45 137z"/>
<path style="fill:#62a296; stroke:none;" d="M56 137L57 138L56 137z"/>
<path style="fill:#ce9c7a; stroke:none;" d="M57 137L57 138L61 138L57 137z"/>
<path style="fill:#62a296; stroke:none;" d="M61.6667 137.333L62.3333 137.667L61.6667 137.333M72 137L73 138L72 137z"/>
<path style="fill:#ce9c7a; stroke:none;" d="M81 137L82 138L81 137M92 137L92 138L98 138L92 137M127 137L127 138L133 138L127 137M143 137L144 138L143 137M152 137L153 138L152 137M163 137L163 138L169 138L163 137z"/>
<path style="fill:#62a296; stroke:none;" d="M54 138L55 139L54 138z"/>
<path style="fill:#fefefe; stroke:none;" d="M55.044 138.858C43.621 143.762 51.6789 161.66 62.9846 156.552C74.6423 151.284 66.7588 133.828 55.044 138.858z"/>
<path style="fill:#ce9c7a; stroke:none;" d="M63 138L64 139L63 138z"/>
<path style="fill:#62a296; stroke:none;" d="M64 138L65 139L64 138z"/>
<path style="fill:#ce9c7a; stroke:none;" d="M73 138L74 139L73 138M80 138L81 139L80 138z"/>
<path style="fill:#fefefe; stroke:none;" d="M90.044 139.028C79.2708 144.769 87.9609 162.23 98.9568 156.539C110.677 150.473 101.576 132.882 90.044 139.028z"/>
<path style="fill:#ce9c7a; stroke:none;" d="M99 138L100 139L99 138M125 138L126 139L125 138z"/>
<path style="fill:#fefefe; stroke:none;" d="M126.043 138.742C114.45 143.422 122.476 161.678 133.96 156.768C145.783 151.713 137.929 133.945 126.043 138.742z"/>
<path style="fill:#ce9c7a; stroke:none;" d="M134 138L135 139L134 138M144 138L145 139L144 138M151 138L152 139L151 138M161 138L162 139L161 138z"/>
<path style="fill:#fefefe; stroke:none;" d="M162.015 138.742C150.656 143.203 157.407 161.338 168.985 157.092C181.274 152.585 174.411 133.875 162.015 138.742z"/>
<path style="fill:#ce9c7a; stroke:none;" d="M170 138L171 139L170 138M44 139L45 140L44 139M53 139L54 140L53 139z"/>
<path style="fill:#62a296; stroke:none;" d="M65 139L66 140L65 139M73 139L74 140L73 139z"/>
<path style="fill:#ce9c7a; stroke:none;" d="M88 139L89 140L88 139M115 139L116 140L115 139M136 139L137 140L136 139M159 139L160 140L159 139M180 139L181 140L180 139z"/>
<path style="fill:#62a296; stroke:none;" d="M51 140L52 141L51 140z"/>
<path style="fill:#ce9c7a; stroke:none;" d="M66 140L67 141L66 140M74 140L75 141L74 140M79 140L80 141L79 140M87 140L88 141L87 140M137 140L138 141L137 140M145.333 140.667L145.667 141.333L145.333 140.667M150 140L151 141L150 140M158 140L159 141L158 140M43 141L44 142L43 141z"/>
<path style="fill:#62a296; stroke:none;" d="M50 141L51 142L50 141M67 141L68 142L67 141M74 141L75 142L74 141z"/>
<path style="fill:#ce9c7a; stroke:none;" d="M86 141L87 142L86 141M114.333 141.667L114.667 142.333L114.333 141.667M138 141L139 142L138 141M157 141L158 142L157 141M181.333 141.667L181.667 142.333L181.333 141.667z"/>
<path style="fill:#62a296; stroke:none;" d="M43 142L44 143L43 142z"/>
<path style="fill:#ce9c7a; stroke:none;" d="M50 142L51 143L50 142M75.3333 142.667L75.6667 143.333L75.3333 142.667M103 142L104 143L103 142M121 142L122 143L121 142M174 142L175 143L174 142z"/>
<path style="fill:#62a296; stroke:none;" d="M49 143L50 144L49 143z"/>
<path style="fill:#ce9c7a; stroke:none;" d="M68 143L69 144L68 143M78.3333 143.667L78.6667 144.333L78.3333 143.667M85 143L86 144L85 143M139 143L140 144L139 143M146 143L146 146L147 146L146 143M149 143L150 144L149 143M156 143L157 144L156 143M42 144L42 147L43 147L42 144M49.3333 144.667L49.6667 145.333L49.3333 144.667z"/>
<path style="fill:#62a296; stroke:none;" d="M69 144L69 147L70 147L69 144M75 144L76 145L75 144z"/>
<path style="fill:#ce9c7a; stroke:none;" d="M104 144L105 145L104 144M120 144L121 145L120 144M175 144L176 145L175 144M84 145L84 150L85 150L84 145M113 145L113 151L114 151L113 145M155 145L155 150L156 150L155 145M182 145L182 150L183 150L182 145M140 146L140 150L141 150L140 146z"/>
<path style="fill:#62a296; stroke:none;" d="M42.3333 147.667L42.6667 148.333L42.3333 147.667z"/>
<path style="fill:#ce9c7a; stroke:none;" d="M69 147L70 148L69 147z"/>
<path style="fill:#62a296; stroke:none;" d="M69 148L69 151L70 151L69 148z"/>
<path style="fill:#ce9c7a; stroke:none;" d="M42.3333 149.667L42.6667 150.333L42.3333 149.667M49 150L50 151L49 150z"/>
<path style="fill:#62a296; stroke:none;" d="M75 150L76 151L75 150z"/>
<path style="fill:#ce9c7a; stroke:none;" d="M78 150L78 153L79 153L78 150M104 150L105 151L104 150M120.333 150.667L120.667 151.333L120.333 150.667M146.333 150.667L146.667 151.333L146.333 150.667M175 150L176 151L175 150z"/>
<path style="fill:#62a296; stroke:none;" d="M49 151L50 152L49 151z"/>
<path style="fill:#ce9c7a; stroke:none;" d="M68 151L69 152L68 151M75.3333 151.667L75.6667 152.333L75.3333 151.667M149.333 151.667L149.667 152.333L149.333 151.667z"/>
<path style="fill:#62a296; stroke:none;" d="M43 152L44 153L43 152M68 152L69 153L68 152z"/>
<path style="fill:#ce9c7a; stroke:none;" d="M85 152L86 153L85 152M103 152L104 153L103 152M110.333 152.667L110.667 153.333L110.333 152.667M139 152L140 153L139 152M156 152L157 153L156 152M174 152L175 153L174 152M181.333 152.667L181.667 153.333L181.333 152.667M43 153L44 154L43 153z"/>
<path style="fill:#62a296; stroke:none;" d="M50 153L51 154L50 153z"/>
<path style="fill:#ce9c7a; stroke:none;" d="M67 153L68 154L67 153z"/>
<path style="fill:#62a296; stroke:none;" d="M74.3333 153.667L74.6667 154.333L74.3333 153.667z"/>
<path style="fill:#ce9c7a; stroke:none;" d="M86 153L87 154L86 153M114 153L115 154L114 153M138 153L139 154L138 153M157 153L158 154L157 153z"/>
<path style="fill:#62a296; stroke:none;" d="M51 154L52 155L51 154z"/>
<path style="fill:#ce9c7a; stroke:none;" d="M66 154L67 155L66 154M79 154L80 155L79 154M102 154L103 155L102 154M122 154L123 155L122 154M145 154L146 155L145 154M150 154L151 155L150 154M173 154L174 155L173 154z"/>
<path style="fill:#62a296; stroke:none;" d="M44 155L45 156L44 155M52 155L53 156L52 155z"/>
<path style="fill:#ce9c7a; stroke:none;" d="M65 155L66 156L65 155M88 155L89 156L88 155M101 155L102 156L101 155M109 155L110 156L109 155M115 155L116 156L115 155M123 155L124 156L123 155M136 155L137 156L136 155M172 155L173 156L172 155M180 155L181 156L180 155z"/>
<path style="fill:#62a296; stroke:none;" d="M53 156L54 157L53 156z"/>
<path style="fill:#ce9c7a; stroke:none;" d="M54 156L55 157L54 156M64 156L65 157L64 156M73 156L74 157L73 156M80 156L81 157L80 156M89 156L90 157L89 156M99 156L100 157L99 156M124 156L125 157L124 156M135 156L136 157L135 156M144 156L145 157L144 156M151 156L152 157L151 156M160 156L161 157L160 156M45 157L46 158L45 157z"/>
<path style="fill:#62a296; stroke:none;" d="M55 157L56 158L55 157z"/>
<path style="fill:#ce9c7a; stroke:none;" d="M56.6667 157.333L57.3333 157.667L56.6667 157.333M60.6667 157.333L61.3333 157.667L60.6667 157.333z"/>
<path style="fill:#62a296; stroke:none;" d="M62 157L63 158L62 157M72 157L73 158L72 157z"/>
<path style="fill:#ce9c7a; stroke:none;" d="M91.6667 157.333L92.3333 157.667L91.6667 157.333M97 157L98 158L97 157M116 157L117 158L116 157M127 157L128 158L127 157M132.667 157.333L133.333 157.667L132.667 157.333M162.667 157.333L163.333 157.667L162.667 157.333M168 157L169 158L168 157M179 157L180 158L179 157z"/>
<path style="fill:#62a296; stroke:none;" d="M46 158L47 159L46 158z"/>
<path style="fill:#ce9c7a; stroke:none;" d="M107 158L108 159L107 158M117 158L118 159L117 158M178 158L179 159L178 158z"/>
<path style="fill:#62a296; stroke:none;" d="M47 159L48 160L47 159M70 159L69 161L70 159z"/>
<path style="fill:#ce9c7a; stroke:none;" d="M106 159L107 160L106 159M118 159L119 160L118 159M177 159L178 160L177 159M48 160L49 161L48 160M70 160L71 161L70 160M105 160L106 161L105 160M119 160L120 161L119 160M176 160L177 161L176 160M49 161L50 162L49 161z"/>
<path style="fill:#62a296; stroke:none;" d="M68 161L69 162L68 161z"/>
<path style="fill:#ce9c7a; stroke:none;" d="M85 161L86 162L85 161M120 161L121 162L120 161M139 161L140 162L139 161M156 161L157 162L156 161M175 161L176 162L175 161z"/>
<path style="fill:#62a296; stroke:none;" d="M51 162L52 163L51 162M66 162L67 163L66 162z"/>
<path style="fill:#ce9c7a; stroke:none;" d="M67 162L68 163L67 162M87 162L88 163L87 162M102 162L103 163L102 162M122 162L123 163L122 162M137 162L138 163L137 162M157 162L158 163L157 162M173 162L174 163L173 162M53 163L54 164L53 163z"/>
<path style="fill:#62a296; stroke:none;" d="M54 163L55 164L54 163M63 163L64 164L63 163z"/>
<path style="fill:#ce9c7a; stroke:none;" d="M64.6667 163.333L65.3333 163.667L64.6667 163.333M89.6667 163.333L90.3333 163.667L89.6667 163.333M99.6667 163.333L100.333 163.667L99.6667 163.333M124.667 163.333L125.333 163.667L124.667 163.333M135 163L136 164L135 163M160 163L161 164L160 163M170.667 163.333L171.333 163.667L170.667 163.333M56 164L56 165L62 165L56 164M94.6667 164.333L95.3333 164.667L94.6667 164.333M128 164L128 165L132 165L128 164M164 164L164 165L168 165L164 164z"/>
<path style="fill:#62a296; stroke:none;" d="M182 189L182 170L125 170C118.619 170 107.089 167.764 101.318 170.603C97.7347 172.367 98.0639 183.553 99.6034 186.682C101.857 191.262 115.655 189 120 189L182 189z"/>
<path style="fill:#fefefe; stroke:none;" d="M107 175L107 183L108 183L108 180L113 183C111.705 178.827 111.788 175.801 107 175M129 175L126 182L127 178L126 178C125.453 181.56 126.51 182.419 130 183L129 175M140 175L140 183C143.142 179.757 146.523 176.087 140 175z"/>
<path style="fill:#62a296; stroke:none;" d="M108 176L108 179L111 179L111 176L108 176M141 176L144 179L143 176L141 176z"/>
<path style="fill:#fefefe; stroke:none;" d="M156 176L159 183L159 182L156 176M114 178L116 183L114 178M117 178L117 180L119 180L117 178M120 178L121 179L120 178M122 178L119 182L120 183L123 181L122 183L123 183L122 178M131 178L132 185L135 180L131 178M135 178L136 179L135 178M146 178L147 179L146 178M148 178L146 183L147 183L149 181L148 183L149 183L148 178M151 178L151 183L152 183L154 178L151 178M160 178L160 183L161 183L162 178L160 178M163 178L164 183L165 183L163 178M167 178C166.506 181.137 166.964 182 170 183L170 182L167 182L167 178M169 178L171 180L169 178M172 178L172 183L173 183L175 179L172 178M117 182L118 183L117 182z"/>
</svg>
